<svg width="85" height="78" viewBox="0 0 85 78" fill="none" xmlns="http://www.w3.org/2000/svg">
<path d="M2 56V71C2 73.7614 4.23858 76 7 76H78C80.7614 76 83 73.7614 83 71V56" stroke="black" stroke-width="3"/>
<path d="M41.2322 65.9147C42.2085 66.891 43.7915 66.891 44.7678 65.9147L60.6777 50.0048C61.654 49.0285 61.654 47.4455 60.6777 46.4692C59.7014 45.4929 58.1184 45.4929 57.1421 46.4692L43 60.6114L28.8579 46.4692C27.8816 45.4929 26.2986 45.4929 25.3223 46.4692C24.346 47.4455 24.346 49.0285 25.3223 50.0048L41.2322 65.9147ZM40.5 0L40.5 64.1469H45.5L45.5 0L40.5 0Z" fill="black"/>
</svg>
