<svg width="77" height="67" viewBox="0 0 77 67" fill="none" xmlns="http://www.w3.org/2000/svg">
<path d="M2 47V60C2 62.7614 4.23857 65 7 65H70C72.7614 65 75 62.7614 75 60V47" stroke="black" stroke-width="3"/>
<path d="M36.2322 58.5555C37.2085 59.5318 38.7915 59.5318 39.7678 58.5555L55.6777 42.6456C56.654 41.6693 56.654 40.0864 55.6777 39.1101C54.7014 38.1338 53.1184 38.1338 52.1421 39.1101L38 53.2522L23.8579 39.1101C22.8816 38.1338 21.2986 38.1338 20.3223 39.1101C19.346 40.0864 19.346 41.6693 20.3223 42.6456L36.2322 58.5555ZM35.5 0V56.7878H40.5V0L35.5 0Z" fill="black"/>
</svg>
