<svg width="110" height="97" viewBox="0 0 110 97" fill="none" xmlns="http://www.w3.org/2000/svg">
<path d="M109 84C109 84.5523 108.552 85 108 85H12C11.4477 85 11 84.5523 11 84V10C11 9.44771 11.4477 9 12 9H60H70.5C72.1569 9 73.5 7.65685 73.5 6V2.5C73.5 1.94771 73.9477 1.5 74.5 1.5H95.5C96.0523 1.5 96.5 1.94772 96.5 2.5V6C96.5 7.65685 97.8431 9 99.5 9H108C108.552 9 109 9.44772 109 10V27.5V47V84Z" fill="#9F8F8F" stroke="black" stroke-width="2"/>
<path d="M104 90C104 90.5523 103.552 91 103 91H7C6.44771 91 6 90.5523 6 90V16C6 15.4477 6.44772 15 7 15H55H65.5C67.1569 15 68.5 13.6569 68.5 12V8.5C68.5 7.94771 68.9477 7.5 69.5 7.5H90.5C91.0523 7.5 91.5 7.94772 91.5 8.5V12C91.5 13.6569 92.8431 15 94.5 15H103C103.552 15 104 15.4477 104 16V33.5V53V90Z" fill="#B9A9A9" stroke="black" stroke-width="2"/>
<path d="M99 95C99 95.5523 98.5523 96 98 96H2C1.44771 96 1 95.5523 1 95V21C1 20.4477 1.44772 20 2 20H50H60.5C62.1569 20 63.5 18.6569 63.5 17V13.5C63.5 12.9477 63.9477 12.5 64.5 12.5H85.5C86.0523 12.5 86.5 12.9477 86.5 13.5V17C86.5 18.6569 87.8431 20 89.5 20H98C98.5523 20 99 20.4477 99 21V38.5V58V95Z" fill="#9F8F8F" stroke="black" stroke-width="2"/>
</svg>
