<svg width="100" height="108" viewBox="0 0 100 108" fill="none" xmlns="http://www.w3.org/2000/svg">
<path d="M1.66663 19.4447C1.66663 9.91828 9.12855 2.19556 18.3333 2.19556H81.6666C90.8714 2.19556 98.3333 9.91827 98.3333 19.4447V88.4414C98.3333 97.9679 90.8714 105.691 81.6666 105.691H18.3333C9.12854 105.691 1.66663 97.9679 1.66663 88.4414V19.4447Z" fill="#9CA3AF"/>
<path fill-rule="evenodd" clip-rule="evenodd" d="M0 19.4447C0 8.96557 8.20811 0.470581 18.3333 0.470581H81.6667C91.7919 0.470581 100 8.96557 100 19.4447V88.4414C100 98.9205 91.7919 107.415 81.6667 107.415H18.3333C8.20811 107.415 0 98.9205 0 88.4414V19.4447ZM18.3333 3.92042C10.0491 3.92042 3.33333 10.8709 3.33333 19.4447V88.4414C3.33333 97.0152 10.0491 103.966 18.3333 103.966H81.6667C89.9509 103.966 96.6667 97.0152 96.6667 88.4414V19.4447C96.6667 10.8709 89.9509 3.92042 81.6667 3.92042H18.3333Z" fill="#9CA3AF"/>
<path fill-rule="evenodd" clip-rule="evenodd" d="M1.66667 79.6874C2.58714 79.6874 3.33333 80.4336 3.33333 81.354V88.4413C3.33333 97.0151 10.0491 103.966 18.3333 103.966H81.6667C89.951 103.966 96.6667 97.0151 96.6667 88.4413V81.354C96.6667 80.4336 97.4129 79.6874 98.3333 79.6874C99.2538 79.6874 100 80.4336 100 81.354V88.4413C100 98.9204 91.7919 107.415 81.6667 107.415H18.3333C8.20811 107.415 0 98.9204 0 88.4413V81.354C0 80.4336 0.746192 79.6874 1.66667 79.6874Z" fill="black"/>
<path fill-rule="evenodd" clip-rule="evenodd" d="M73.5704 32.0604L52.3572 10.1058C51.0555 8.75851 48.9449 8.75851 47.6432 10.1058L26.43 32.0604C25.1282 33.4076 25.1282 35.5919 26.43 36.9392C27.7317 38.2864 29.8423 38.2864 31.144 36.9392L46.6669 20.8738V95.3412H53.3335V20.8738L68.8564 36.9392C70.1581 38.2864 72.2687 38.2864 73.5704 36.9392C74.8722 35.5919 74.8722 33.4076 73.5704 32.0604Z" fill="black"/>
</svg>
